<?xml version="1.0" encoding="UTF-8"?>
<svg version="1.1" xmlns="http://www.w3.org/2000/svg" width="400" height="200">
<path d="M0 0 C132 0 264 0 400 0 C400 66 400 132 400 200 C268 200 136 200 0 200 C0 134 0 68 0 0 Z " fill="#000000" transform="translate(0,0)"/>
<path d="M0 0 C3.96 0 7.92 0 12 0 C14.31 8.25 16.62 16.5 19 25 C19.33 16.75 19.66 8.5 20 0 C23.526875 -0.061875 23.526875 -0.061875 27.125 -0.125 C28.21772217 -0.15231201 28.21772217 -0.15231201 29.33251953 -0.18017578 C33.61684713 -0.21619806 37.083625 0.24518509 41 2 C43.08133467 5.122002 43.2737822 5.93266989 43.25 9.5 C43.25773437 10.66015625 43.25773437 10.66015625 43.265625 11.84375 C43 14 43 14 41 17 C41.3070758 21.60613707 42.88307929 24.95023864 45 29 C45 29.66 45 30.32 45 31 C41.37 31 37.74 31 34 31 C33.01 28.69 32.02 26.38 31 24 C30.67 26.31 30.34 28.62 30 31 C23.07 31 16.14 31 9 31 C8.67 28.69 8.34 26.38 8 24 C6.02 24 4.04 24 2 24 C1.67 26.31 1.34 28.62 1 31 C-2.3 31 -5.6 31 -9 31 C-7.69483393 23.99497823 -6.02188115 17.24850703 -3.9375 10.4375 C-3.66873047 9.53708984 -3.39996094 8.63667969 -3.12304688 7.70898438 C-1.13282941 1.13282941 -1.13282941 1.13282941 0 0 Z " fill="#00519B" transform="translate(184,73)"/>
<path d="M0 0 C3.3 0 6.6 0 10 0 C11.25050287 2.50100574 11.02993449 4.00343052 10.87890625 6.7890625 C10.83056641 7.73007813 10.78222656 8.67109375 10.73242188 9.640625 C10.67634766 10.62546875 10.62027344 11.6103125 10.5625 12.625 C10.51029297 13.61757812 10.45808594 14.61015625 10.40429688 15.6328125 C10.27441051 18.08884568 10.13943836 20.5444936 10 23 C12.97 23 15.94 23 19 23 C19.33 23.99 19.66 24.98 20 26 C22.64 17.42 25.28 8.84 28 0 C31.96 0 35.92 0 40 0 C42.20268305 5.66496491 44.06290319 11.33208007 45.6875 17.1875 C45.91244141 17.96802734 46.13738281 18.74855469 46.36914062 19.55273438 C46.6872168 20.69258789 46.6872168 20.69258789 47.01171875 21.85546875 C47.20209717 22.53246826 47.39247559 23.20946777 47.58862305 23.90698242 C48 26 48 26 48 31 C44.7 31 41.4 31 38 31 C37.505 27.535 37.505 27.535 37 24 C34.69 24 32.38 24 30 24 C29.67 26.31 29.34 28.62 29 31 C19.43 31 9.86 31 0 31 C0 20.77 0 10.54 0 0 Z " fill="#00529C" transform="translate(230,73)"/>
<path d="M0 0 C3.3 0 6.6 0 10 0 C11 1 11 1 11.09765625 3.28515625 C11.08605469 4.20167969 11.07445312 5.11820312 11.0625 6.0625 C11.05347656 6.98160156 11.04445312 7.90070313 11.03515625 8.84765625 C11.02355469 9.55792969 11.01195312 10.26820312 11 11 C12.32 11 13.64 11 15 11 C15 7.37 15 3.74 15 0 C18.3 0 21.6 0 25 0 C25 10.23 25 20.46 25 31 C21.7 31 18.4 31 15 31 C15 27.04 15 23.08 15 19 C13.68 19 12.36 19 11 19 C11 22.96 11 26.92 11 31 C7.37 31 3.74 31 0 31 C0 20.77 0 10.54 0 0 Z " fill="#00539E" transform="translate(149,73)"/>
<path d="M0 0 C4.00613362 2.00306681 6.56682883 4.30860166 9.640625 7.4453125 C10.43119293 8.24012527 10.43119293 8.24012527 11.23773193 9.05099487 C12.91325675 10.73767825 14.58167722 12.43119564 16.25 14.125 C17.38755851 15.27259388 18.52557436 16.41973461 19.6640625 17.56640625 C22.44803465 20.37238137 25.2256576 23.18450464 28 26 C24.22369848 30.51572304 20.32390572 34.81275974 16.125 38.9375 C15.62742187 39.43056641 15.12984375 39.92363281 14.6171875 40.43164062 C13.41379715 41.62345992 12.20724635 42.81208678 11 44 C9.82460004 43.07347299 8.65989423 42.13336613 7.5 41.1875 C6.8503125 40.66542969 6.200625 40.14335938 5.53125 39.60546875 C4 38 4 38 4 35 C5.67894363 33.35612569 7.49931268 32.01567221 9.37109375 30.59765625 C11.34256338 28.66400858 11.79958362 27.74984886 12 25 C10.45949668 22.76508762 10.45949668 22.76508762 8.16015625 20.671875 C7.34482422 19.87265625 6.52949219 19.0734375 5.68945312 18.25 C4.82255859 17.425 3.95566406 16.6 3.0625 15.75 C2.19947266 14.90953125 1.33644531 14.0690625 0.44726562 13.203125 C-1.69110315 11.12382718 -3.84024089 9.05703385 -6 7 C-4.02 4.69 -2.04 2.38 0 0 Z " fill="#FCD600" transform="translate(84,71)"/>
<path d="M0 0 C2.31 1.98 4.62 3.96 7 6 C5.02215947 9.95568107 3.37632808 11.65225121 0.14453125 14.4375 C-1.21608872 15.94419906 -1.21608872 15.94419906 -0.87109375 17.9765625 C0.14071407 20.32686049 1.27710405 21.60996934 3.125 23.375 C3.75148438 23.97828125 4.37796875 24.5815625 5.0234375 25.203125 C6.89119625 26.9010875 8.80371794 28.51828205 10.75 30.125 C13.53460791 32.45280706 15.35812254 34.71624508 17 38 C15.02 39.98 13.04 41.96 11 44 C6.99482604 42.39626852 4.3228902 39.57886014 1.359375 36.5546875 C0.83232971 36.02481232 0.30528442 35.49493713 -0.23773193 34.94900513 C-1.91325675 33.26232175 -3.58167722 31.56880436 -5.25 29.875 C-6.38755851 28.72740612 -7.52557436 27.58026539 -8.6640625 26.43359375 C-11.44803465 23.62761863 -14.2256576 20.81549536 -17 18 C-13.22369848 13.48427696 -9.32390572 9.18724026 -5.125 5.0625 C-4.62742187 4.56943359 -4.12984375 4.07636719 -3.6171875 3.56835938 C-2.41379715 2.37654008 -1.20724635 1.18791322 0 0 Z " fill="#FCD600" transform="translate(75,80)"/>
<path d="M0 0 C6.27 0 12.54 0 19 0 C19 2.31 19 4.62 19 7 C18 8 18 8 16.15234375 8.09765625 C14.1015625 8.06510417 12.05078125 8.03255208 10 8 C10 9.32 10 10.64 10 12 C12.64 12 15.28 12 18 12 C18 14.31 18 16.62 18 19 C15.36 19 12.72 19 10 19 C10 20.32 10 21.64 10 23 C13.3 23 16.6 23 20 23 C19.67 25.64 19.34 28.28 19 31 C12.73 31 6.46 31 0 31 C0 20.77 0 10.54 0 0 Z " fill="#00539E" transform="translate(322,73)"/>
<path d="M0 0 C1.0725 -0.02578125 2.145 -0.0515625 3.25 -0.078125 C4.1575 0.03015625 5.065 0.1384375 6 0.25 C8 3.25 8 3.25 7.625 6.4375 C7.315625 7.8296875 7.315625 7.8296875 7 9.25 C3.7 9.25 0.4 9.25 -3 9.25 C-4.32657141 16.01224948 -4.32657141 16.01224948 -2 22.25 C1.60224345 23.57714232 3.17766668 23.20558333 7 22.25 C7 25.22 7 28.19 7 31.25 C0.33348137 32.41399532 -4.93096514 32.5824961 -11 29.25 C-14.29130502 25.7118471 -15.71491604 22.32301608 -16.09765625 17.46875 C-15.84639154 11.76001572 -14.50689356 6.75689356 -10.4375 2.6875 C-6.64048031 0.44823198 -4.4367568 0.06399168 0 0 Z " fill="#00539D" transform="translate(139,72.75)"/>
<path d="M0 0 C1.04027344 0.00644531 2.08054688 0.01289062 3.15234375 0.01953125 C5.62786578 0.16241373 7.67973717 0.58489873 10.0625 1.1875 C10.3925 0.8575 10.7225 0.5275 11.0625 0.1875 C13.08214199 0.11505947 15.10417124 0.10372812 17.125 0.125 C18.22972656 0.13402344 19.33445313 0.14304687 20.47265625 0.15234375 C21.32730469 0.16394531 22.18195313 0.17554687 23.0625 0.1875 C23.5575 3.6525 23.5575 3.6525 24.0625 7.1875 C24.3925 7.1875 24.7225 7.1875 25.0625 7.1875 C25.3925 4.8775 25.7225 2.5675 26.0625 0.1875 C27.4995809 0.13327053 28.93725462 0.09460277 30.375 0.0625 C31.17550781 0.03929688 31.97601563 0.01609375 32.80078125 -0.0078125 C35.0625 0.1875 35.0625 0.1875 38.0625 2.1875 C38.375 4.6875 38.375 4.6875 38.0625 7.1875 C37.4025 7.8475 36.7425 8.5075 36.0625 9.1875 C35.0725 9.1875 34.0825 9.1875 33.0625 9.1875 C33.0625 9.8475 33.0625 10.5075 33.0625 11.1875 C23.39583333 11.1875 13.72916667 11.1875 4.0625 11.1875 C3.23878906 11.22230469 2.41507813 11.25710937 1.56640625 11.29296875 C0.59574219 11.32003906 -0.37492188 11.34710938 -1.375 11.375 C-2.82712891 11.42720703 -2.82712891 11.42720703 -4.30859375 11.48046875 C-6.9375 11.1875 -6.9375 11.1875 -8.79296875 9.8671875 C-9.9375 8.1875 -9.9375 8.1875 -9.8125 5.125 C-8.22025897 -0.2203806 -4.94896096 -0.06729119 0 0 Z " fill="#004F96" transform="translate(178.9375,117.8125)"/>
<path d="M0 0 C7.26 0 14.52 0 22 0 C22 2.64 22 5.28 22 8 C20.02 8 18.04 8 16 8 C16 15.59 16 23.18 16 31 C12.7 31 9.4 31 6 31 C6 23.41 6 15.82 6 8 C4.02 8 2.04 8 0 8 C0 5.36 0 2.72 0 0 Z " fill="#00539E" transform="translate(298,73)"/>
<path d="M0 0 C7.26 0 14.52 0 22 0 C22 2.64 22 5.28 22 8 C20.02 8 18.04 8 16 8 C16 15.59 16 23.18 16 31 C12.7 31 9.4 31 6 31 C6 23.41 6 15.82 6 8 C4.02 8 2.04 8 0 8 C0 5.36 0 2.72 0 0 Z " fill="#00539E" transform="translate(275,73)"/>
<path d="M0 0 C2.93774463 -0.05390357 5.87450232 -0.0936255 8.8125 -0.125 C10.06256836 -0.15013672 10.06256836 -0.15013672 11.33789062 -0.17578125 C12.14033203 -0.18222656 12.94277344 -0.18867187 13.76953125 -0.1953125 C14.50792236 -0.20578613 15.24631348 -0.21625977 16.00708008 -0.22705078 C18 0 18 0 21 2 C21.66 1.34 22.32 0.68 23 0 C24.87939453 -0.22705078 24.87939453 -0.22705078 27.1328125 -0.1953125 C28.34130859 -0.18564453 28.34130859 -0.18564453 29.57421875 -0.17578125 C30.83685547 -0.15064453 30.83685547 -0.15064453 32.125 -0.125 C33.39923828 -0.11146484 33.39923828 -0.11146484 34.69921875 -0.09765625 C36.79959884 -0.07405647 38.89983444 -0.03818483 41 0 C41 1.32 41 2.64 41 4 C40.34 4 39.68 4 39 4 C39 6.31 39 8.62 39 11 C36.36 11 33.72 11 31 11 C31 10.34 31 9.68 31 9 C30.236875 9.33 29.47375 9.66 28.6875 10 C26 11 26 11 23 11 C23 9.68 23 8.36 23 7 C22.67 8.32 22.34 9.64 22 11 C19.36 11 16.72 11 14 11 C14 10.34 14 9.68 14 9 C12.68 9 11.36 9 10 9 C10 9.66 10 10.32 10 11 C8.68 11 7.36 11 6 11 C6 10.01 6 9.02 6 8 C5.01 8 4.02 8 3 8 C3 8.99 3 9.98 3 11 C2.01 11 1.02 11 0 11 C0 7.37 0 3.74 0 0 Z " fill="#004F96" transform="translate(124,118)"/>
<path d="M0 0 C2.4375 1.1875 2.4375 1.1875 4 3 C4.5 5.5 4.5 5.5 4 8 C1.64239439 10.73482251 0.09931686 10.98758539 -3.5 11.4375 C-7 11 -7 11 -9.5 9.3125 C-11 7 -11 7 -10.9375 4.375 C-8.89327999 -0.8036907 -4.88830277 -0.42879849 0 0 Z " fill="#00539D" transform="translate(273,106)"/>
<path d="M0 0 C4.53786224 2.26893112 5.94678157 4.09866534 9 8 C6.69 10.31 4.38 12.62 2 15 C-2.53786224 12.73106888 -3.94678157 10.90133466 -7 7 C-4.69 4.69 -2.38 2.38 0 0 Z " fill="#FCD500" transform="translate(84,90)"/>
<path d="M0 0 C1.258125 -0.04125 2.51625 -0.0825 3.8125 -0.125 C4.52019531 -0.14820312 5.22789062 -0.17140625 5.95703125 -0.1953125 C8 0 8 0 11 2 C10.79375 2.7425 10.5875 3.485 10.375 4.25 C9.95591249 7.32330841 10.38050989 8.42786866 12 11 C8.62537285 10.45276317 6.91765 9.9451 4 8 C4 8.99 4 9.98 4 11 C2.68 11 1.36 11 0 11 C0 7.37 0 3.74 0 0 Z " fill="#005097" transform="translate(124,106)"/>
<path d="M0 0 C1.258125 -0.04125 2.51625 -0.0825 3.8125 -0.125 C4.52019531 -0.14820312 5.22789062 -0.17140625 5.95703125 -0.1953125 C8 0 8 0 11 2 C10.79375 2.7425 10.5875 3.485 10.375 4.25 C9.95591249 7.32330841 10.38050989 8.42786866 12 11 C7.25 10.25 7.25 10.25 5 8 C4.67 8.99 4.34 9.98 4 11 C2.68 11 1.36 11 0 11 C0 7.37 0 3.74 0 0 Z " fill="#005097" transform="translate(307,106)"/>
<path d="M0 0 C1.258125 -0.04125 2.51625 -0.0825 3.8125 -0.125 C4.52019531 -0.14820312 5.22789062 -0.17140625 5.95703125 -0.1953125 C8 0 8 0 11 2 C10.79375 2.7425 10.5875 3.485 10.375 4.25 C9.95591249 7.32330841 10.38050989 8.42786866 12 11 C7.25 10.25 7.25 10.25 5 8 C4.67 8.99 4.34 9.98 4 11 C2.68 11 1.36 11 0 11 C0 7.37 0 3.74 0 0 Z " fill="#005098" transform="translate(216,106)"/>
<path d="M0 0 C3.3 0 6.6 0 10 0 C10 3.63 10 7.26 10 11 C6.7 11 3.4 11 0 11 C0 7.37 0 3.74 0 0 Z " fill="#00539D" transform="translate(193,106)"/>
<path d="M0 0 C3.3 0 6.6 0 10 0 C10 3.63 10 7.26 10 11 C6.7 11 3.4 11 0 11 C0 7.37 0 3.74 0 0 Z " fill="#00529D" transform="translate(148,106)"/>
<path d="M0 0 C0 0.99 0 1.98 0 3 C-0.99 3.495 -0.99 3.495 -2 4 C-1.01 4.99 -0.02 5.98 1 7 C0 10 0 10 -2 11 C-4.3329866 11.04022391 -6.66706666 11.04320247 -9 11 C-9.33 10.01 -9.66 9.02 -10 8 C-9.01 7.67 -8.02 7.34 -7 7 C-7.99 6.34 -8.98 5.68 -10 5 C-10 3.68 -10 2.36 -10 1 C-6.78548731 -0.60725635 -3.56387464 -0.05748185 0 0 Z " fill="#00529B" transform="translate(341,106)"/>
<path d="M0 0 C2.05078125 0.03255208 4.1015625 0.06510417 6.15234375 0.09765625 C6.15234375 1.08765625 6.15234375 2.07765625 6.15234375 3.09765625 C5.16234375 3.59265625 5.16234375 3.59265625 4.15234375 4.09765625 C5.14234375 4.75765625 6.13234375 5.41765625 7.15234375 6.09765625 C6.77734375 8.03515625 6.77734375 8.03515625 6.15234375 10.09765625 C3.19569856 11.57597885 0.41004638 11.15798408 -2.84765625 11.09765625 C-3.17765625 10.10765625 -3.50765625 9.11765625 -3.84765625 8.09765625 C-2.52765625 7.76765625 -1.20765625 7.43765625 0.15234375 7.09765625 C-1.16765625 6.43765625 -2.48765625 5.77765625 -3.84765625 5.09765625 C-2.72914438 0.14424653 -2.72914438 0.14424653 0 0 Z " fill="#00539D" transform="translate(173.84765625,105.90234375)"/>
<path d="M0 0 C2.475 0.495 2.475 0.495 5 1 C5.33 2.65 5.66 4.3 6 6 C6.66 6 7.32 6 8 6 C8.66 4.02 9.32 2.04 10 0 C10.99 0 11.98 0 13 0 C12.39301257 4.12751449 10.96189209 7.3321148 9 11 C6.75 11 6.75 11 4 10 C1.94304343 7.00985547 0 3.686098 0 0 Z " fill="#00529B" transform="translate(238,106)"/>
<path d="M0 0 C0.99 0 1.98 0 3 0 C3 3.63 3 7.26 3 11 C2.01 11 1.02 11 0 11 C0 7.37 0 3.74 0 0 Z " fill="#00539E" transform="translate(290,106)"/>
<path d="M0 0 C1.2065625 0.0309375 1.2065625 0.0309375 2.4375 0.0625 C3 2 3 2 3.4375 4.0625 C2.4375 5.0625 2.4375 5.0625 -0.125 5.125 C-1.3315625 5.0940625 -1.3315625 5.0940625 -2.5625 5.0625 C-3.125 3.125 -3.125 3.125 -3.5625 1.0625 C-2.5625 0.0625 -2.5625 0.0625 0 0 Z " fill="#000102" transform="translate(269.5625,108.9375)"/>
</svg>
